<svg xmlns="http://www.w3.org/2000/svg" width="800" height="800" viewBox="0 0 800 800">
<rect width="800" height="800" fill="white"/>
<text x="400.0" y="26" font-size="15" fill="#222" text-anchor="middle">1965-02-04T05:01Z  M8.7  1965 Western Aleutian Islands (Hawadax/Rat I</text>
<circle cx="400.0" cy="400.0" r="340.0" fill="none" stroke="#333"/>
<circle cx="400.0" cy="400.0" r="296.0" fill="none" stroke="#999"/>
<line x1="104.0" y1="400.0" x2="60.0" y2="400.0" stroke="#999"/>
<text x="92.8" y="482.3" font-size="13" fill="#555" text-anchor="middle" dominant-baseline="middle">Ari</text>
<line x1="143.7" y1="548.0" x2="105.6" y2="570.0" stroke="#999"/>
<text x="175.1" y="624.9" font-size="13" fill="#555" text-anchor="middle" dominant-baseline="middle">Tau</text>
<line x1="252.0" y1="656.3" x2="230.0" y2="694.4" stroke="#999"/>
<text x="317.7" y="707.2" font-size="13" fill="#555" text-anchor="middle" dominant-baseline="middle">Gem</text>
<line x1="400.0" y1="696.0" x2="400.0" y2="740.0" stroke="#999"/>
<text x="482.3" y="707.2" font-size="13" fill="#555" text-anchor="middle" dominant-baseline="middle">Can</text>
<line x1="548.0" y1="656.3" x2="570.0" y2="694.4" stroke="#999"/>
<text x="624.9" y="624.9" font-size="13" fill="#555" text-anchor="middle" dominant-baseline="middle">Leo</text>
<line x1="656.3" y1="548.0" x2="694.4" y2="570.0" stroke="#999"/>
<text x="707.2" y="482.3" font-size="13" fill="#555" text-anchor="middle" dominant-baseline="middle">Vir</text>
<line x1="696.0" y1="400.0" x2="740.0" y2="400.0" stroke="#999"/>
<text x="707.2" y="317.7" font-size="13" fill="#555" text-anchor="middle" dominant-baseline="middle">Lib</text>
<line x1="656.3" y1="252.0" x2="694.4" y2="230.0" stroke="#999"/>
<text x="624.9" y="175.1" font-size="13" fill="#555" text-anchor="middle" dominant-baseline="middle">Sco</text>
<line x1="548.0" y1="143.7" x2="570.0" y2="105.6" stroke="#999"/>
<text x="482.3" y="92.8" font-size="13" fill="#555" text-anchor="middle" dominant-baseline="middle">Sag</text>
<line x1="400.0" y1="104.0" x2="400.0" y2="60.0" stroke="#999"/>
<text x="317.7" y="92.8" font-size="13" fill="#555" text-anchor="middle" dominant-baseline="middle">Cap</text>
<line x1="252.0" y1="143.7" x2="230.0" y2="105.6" stroke="#999"/>
<text x="175.1" y="175.1" font-size="13" fill="#555" text-anchor="middle" dominant-baseline="middle">Aqu</text>
<line x1="143.7" y1="252.0" x2="105.6" y2="230.0" stroke="#999"/>
<text x="92.8" y="317.7" font-size="13" fill="#555" text-anchor="middle" dominant-baseline="middle">Pis</text>
<line class="aspect-line square" x1="307.8" y1="169.8" x2="172.9" y2="499.6" stroke="#cc3333" stroke-width="1.6"/>
<line class="aspect-line opposition" x1="209.9" y1="240.7" x2="591.5" y2="557.6" stroke="#772222" stroke-width="1.6"/>
<line class="aspect-line opposition" x1="209.9" y1="240.7" x2="596.4" y2="551.4" stroke="#772222" stroke-width="1.6"/>
<line class="aspect-line trine" x1="623.7" y1="507.0" x2="377.3" y2="153.0" stroke="#2e7d32" stroke-width="1.6"/>
<line class="aspect-line conjunction" x1="365.7" y1="154.4" x2="377.3" y2="153.0" stroke="#666666" stroke-width="1.6"/>
<line class="aspect-line opposition" x1="172.9" y1="499.6" x2="621.9" y2="289.2" stroke="#772222" stroke-width="1.6"/>
<line class="aspect-line trine" x1="172.9" y1="499.6" x2="596.4" y2="551.4" stroke="#2e7d32" stroke-width="1.6"/>
<line class="aspect-line opposition" x1="264.2" y1="607.5" x2="535.8" y2="192.5" stroke="#772222" stroke-width="1.6"/>
<line class="aspect-line conjunction" x1="591.5" y1="557.6" x2="596.4" y2="551.4" stroke="#666666" stroke-width="1.6"/>
<circle data-body="Jupiter" cx="154.6" cy="507.7" r="5" fill="#C8A200"/>
<text x="178.4" y="497.2" font-size="11" fill="#C8A200" text-anchor="middle" dominant-baseline="middle">Jup</text>
<circle data-body="Rahu" cx="253.3" cy="624.3" r="5" fill="#777777"/>
<text x="267.5" y="602.5" font-size="11" fill="#777777" text-anchor="middle" dominant-baseline="middle">Rah</text>
<circle data-body="Ascendant" cx="533.7" cy="632.3" r="5" fill="#0000AA"/>
<text x="520.7" y="609.8" font-size="11" fill="#0000AA" text-anchor="middle" dominant-baseline="middle">Asc</text>
<circle data-body="Uranus" cx="606.9" cy="570.3" r="5" fill="#5555FF"/>
<text x="586.8" y="553.8" font-size="11" fill="#5555FF" text-anchor="middle" dominant-baseline="middle">Ura</text>
<circle data-body="Pluto" cx="612.3" cy="563.6" r="5" fill="#00AACC"/>
<text x="575.9" y="535.5" font-size="11" fill="#00AACC" text-anchor="middle" dominant-baseline="middle">Plu</text>
<circle data-body="Mars" cx="641.8" cy="515.6" r="5" fill="#AA0000"/>
<text x="618.3" y="504.4" font-size="11" fill="#AA0000" text-anchor="middle" dominant-baseline="middle">Mar</text>
<circle data-body="Neptune" cx="639.8" cy="280.3" r="5" fill="#55AA55"/>
<text x="616.5" y="291.9" font-size="11" fill="#55AA55" text-anchor="middle" dominant-baseline="middle">Nep</text>
<circle data-body="Ketu" cx="546.7" cy="175.7" r="5" fill="#555555"/>
<text x="532.5" y="197.5" font-size="11" fill="#555555" text-anchor="middle" dominant-baseline="middle">Ket</text>
<circle data-body="Venus" cx="375.4" cy="133.1" r="5" fill="#FF5555"/>
<text x="377.8" y="159.0" font-size="11" fill="#FF5555" text-anchor="middle" dominant-baseline="middle">Ven</text>
<circle data-body="Mercury" cx="362.9" cy="134.6" r="5" fill="#AA00AA"/>
<text x="369.3" y="180.1" font-size="11" fill="#AA00AA" text-anchor="middle" dominant-baseline="middle">Mer</text>
<circle data-body="Sun" cx="300.4" cy="151.2" r="5" fill="#00AA00"/>
<text x="310.0" y="175.3" font-size="11" fill="#00AA00" text-anchor="middle" dominant-baseline="middle">Sun</text>
<circle data-body="Saturn" cx="221.9" cy="199.8" r="5" fill="#444444"/>
<text x="239.2" y="219.2" font-size="11" fill="#444444" text-anchor="middle" dominant-baseline="middle">Sat</text>
<circle data-body="Moon" cx="194.6" cy="227.9" r="5" fill="#00AAAA"/>
<text x="214.5" y="244.6" font-size="11" fill="#00AAAA" text-anchor="middle" dominant-baseline="middle">Moo</text>
<text x="14" y="664" font-size="12" fill="#cc3333">Sun square Jupiter (91.86°)</text>
<text x="14" y="679" font-size="12" fill="#772222">Moon opposition Uranus (179.50°)</text>
<text x="14" y="694" font-size="12" fill="#772222">Moon opposition Pluto (177.66°)</text>
<text x="14" y="709" font-size="12" fill="#2e7d32">Mars trine Venus (120.82°)</text>
<text x="14" y="724" font-size="12" fill="#666666">Mercury conjunction Venus (2.70°)</text>
<text x="14" y="739" font-size="12" fill="#772222">Jupiter opposition Neptune (177.16°)</text>
<text x="14" y="754" font-size="12" fill="#2e7d32">Jupiter trine Pluto (118.69°)</text>
<text x="14" y="769" font-size="12" fill="#772222">Rahu opposition Ketu (180.00°)</text>
<text x="14" y="784" font-size="12" fill="#666666">Uranus conjunction Pluto (1.84°)</text>
</svg>