<svg xmlns="http://www.w3.org/2000/svg" width="800" height="800" viewBox="0 0 800 800">
<rect width="800" height="800" fill="white"/>
<text x="400.0" y="26" font-size="15" fill="#222" text-anchor="middle">1905-04-04T00:49Z  M0  INDIA:  KANGRA</text>
<circle cx="400.0" cy="400.0" r="340.0" fill="none" stroke="#333"/>
<circle cx="400.0" cy="400.0" r="296.0" fill="none" stroke="#999"/>
<line x1="104.0" y1="400.0" x2="60.0" y2="400.0" stroke="#999"/>
<text x="92.8" y="482.3" font-size="13" fill="#555" text-anchor="middle" dominant-baseline="middle">Ari</text>
<line x1="143.7" y1="548.0" x2="105.6" y2="570.0" stroke="#999"/>
<text x="175.1" y="624.9" font-size="13" fill="#555" text-anchor="middle" dominant-baseline="middle">Tau</text>
<line x1="252.0" y1="656.3" x2="230.0" y2="694.4" stroke="#999"/>
<text x="317.7" y="707.2" font-size="13" fill="#555" text-anchor="middle" dominant-baseline="middle">Gem</text>
<line x1="400.0" y1="696.0" x2="400.0" y2="740.0" stroke="#999"/>
<text x="482.3" y="707.2" font-size="13" fill="#555" text-anchor="middle" dominant-baseline="middle">Can</text>
<line x1="548.0" y1="656.3" x2="570.0" y2="694.4" stroke="#999"/>
<text x="624.9" y="624.9" font-size="13" fill="#555" text-anchor="middle" dominant-baseline="middle">Leo</text>
<line x1="656.3" y1="548.0" x2="694.4" y2="570.0" stroke="#999"/>
<text x="707.2" y="482.3" font-size="13" fill="#555" text-anchor="middle" dominant-baseline="middle">Vir</text>
<line x1="696.0" y1="400.0" x2="740.0" y2="400.0" stroke="#999"/>
<text x="707.2" y="317.7" font-size="13" fill="#555" text-anchor="middle" dominant-baseline="middle">Lib</text>
<line x1="656.3" y1="252.0" x2="694.4" y2="230.0" stroke="#999"/>
<text x="624.9" y="175.1" font-size="13" fill="#555" text-anchor="middle" dominant-baseline="middle">Sco</text>
<line x1="548.0" y1="143.7" x2="570.0" y2="105.6" stroke="#999"/>
<text x="482.3" y="92.8" font-size="13" fill="#555" text-anchor="middle" dominant-baseline="middle">Sag</text>
<line x1="400.0" y1="104.0" x2="400.0" y2="60.0" stroke="#999"/>
<text x="317.7" y="92.8" font-size="13" fill="#555" text-anchor="middle" dominant-baseline="middle">Cap</text>
<line x1="252.0" y1="143.7" x2="230.0" y2="105.6" stroke="#999"/>
<text x="175.1" y="175.1" font-size="13" fill="#555" text-anchor="middle" dominant-baseline="middle">Aqu</text>
<line x1="143.7" y1="252.0" x2="105.6" y2="230.0" stroke="#999"/>
<text x="92.8" y="317.7" font-size="13" fill="#555" text-anchor="middle" dominant-baseline="middle">Pis</text>
<line class="aspect-line conjunction" x1="163.0" y1="327.1" x2="165.7" y2="318.8" stroke="#666666" stroke-width="1.6"/>
<line class="aspect-line square" x1="163.0" y1="327.1" x2="478.0" y2="164.6" stroke="#cc3333" stroke-width="1.6"/>
<line class="aspect-line square" x1="163.0" y1="327.1" x2="326.9" y2="637.0" stroke="#cc3333" stroke-width="1.6"/>
<line class="aspect-line square" x1="165.7" y1="318.8" x2="478.0" y2="164.6" stroke="#cc3333" stroke-width="1.6"/>
<line class="aspect-line square" x1="165.7" y1="318.8" x2="326.9" y2="637.0" stroke="#cc3333" stroke-width="1.6"/>
<line class="aspect-line trine" x1="155.8" y1="443.4" x2="478.0" y2="164.6" stroke="#2e7d32" stroke-width="1.6"/>
<line class="aspect-line trine" x1="158.8" y1="457.6" x2="575.4" y2="575.3" stroke="#2e7d32" stroke-width="1.6"/>
<line class="aspect-line trine" x1="158.8" y1="457.6" x2="478.0" y2="164.6" stroke="#2e7d32" stroke-width="1.6"/>
<line class="aspect-line opposition" x1="575.4" y1="575.3" x2="224.6" y2="224.7" stroke="#772222" stroke-width="1.6"/>
<line class="aspect-line trine" x1="224.6" y1="224.7" x2="326.9" y2="637.0" stroke="#2e7d32" stroke-width="1.6"/>
<line class="aspect-line opposition" x1="478.0" y1="164.6" x2="326.9" y2="637.0" stroke="#772222" stroke-width="1.6"/>
<circle data-body="Mercury" cx="136.1" cy="446.9" r="5" fill="#AA00AA"/>
<text x="161.7" y="442.3" font-size="11" fill="#AA00AA" text-anchor="middle" dominant-baseline="middle">Mer</text>
<circle data-body="Jupiter" cx="139.3" cy="462.3" r="5" fill="#C8A200"/>
<text x="184.1" y="451.6" font-size="11" fill="#C8A200" text-anchor="middle" dominant-baseline="middle">Jup</text>
<circle data-body="Venus" cx="151.7" cy="500.9" r="5" fill="#FF5555"/>
<text x="175.8" y="491.1" font-size="11" fill="#FF5555" text-anchor="middle" dominant-baseline="middle">Ven</text>
<circle data-body="Pluto" cx="255.2" cy="625.5" r="5" fill="#00AACC"/>
<text x="269.2" y="603.6" font-size="11" fill="#00AACC" text-anchor="middle" dominant-baseline="middle">Plu</text>
<circle data-body="Neptune" cx="321.0" cy="656.1" r="5" fill="#55AA55"/>
<text x="328.6" y="631.2" font-size="11" fill="#55AA55" text-anchor="middle" dominant-baseline="middle">Nep</text>
<circle data-body="Rahu" cx="589.5" cy="589.5" r="5" fill="#777777"/>
<text x="571.2" y="571.1" font-size="11" fill="#777777" text-anchor="middle" dominant-baseline="middle">Rah</text>
<circle data-body="Mars" cx="625.9" cy="255.8" r="5" fill="#AA0000"/>
<text x="604.0" y="269.8" font-size="11" fill="#AA0000" text-anchor="middle" dominant-baseline="middle">Mar</text>
<circle data-body="Uranus" cx="484.3" cy="145.6" r="5" fill="#5555FF"/>
<text x="476.2" y="170.3" font-size="11" fill="#5555FF" text-anchor="middle" dominant-baseline="middle">Ura</text>
<circle data-body="Saturn" cx="239.8" cy="185.1" r="5" fill="#444444"/>
<text x="255.4" y="206.0" font-size="11" fill="#444444" text-anchor="middle" dominant-baseline="middle">Sat</text>
<circle data-body="Ketu" cx="210.5" cy="210.5" r="5" fill="#555555"/>
<text x="228.8" y="228.9" font-size="11" fill="#555555" text-anchor="middle" dominant-baseline="middle">Ket</text>
<circle data-body="Moon" cx="146.8" cy="312.3" r="5" fill="#00AAAA"/>
<text x="171.3" y="320.8" font-size="11" fill="#00AAAA" text-anchor="middle" dominant-baseline="middle">Moo</text>
<circle data-body="Ascendant" cx="143.8" cy="321.2" r="5" fill="#0000AA"/>
<text x="187.8" y="334.7" font-size="11" fill="#0000AA" text-anchor="middle" dominant-baseline="middle">Asc</text>
<circle data-body="Sun" cx="135.2" cy="358.4" r="5" fill="#00AA00"/>
<text x="160.9" y="362.5" font-size="11" fill="#00AA00" text-anchor="middle" dominant-baseline="middle">Sun</text>
<text x="14" y="634" font-size="12" fill="#666666">Ascendant conjunction Moon (2.01°)</text>
<text x="14" y="649" font-size="12" fill="#cc3333">Ascendant square Uranus (91.25°)</text>
<text x="14" y="664" font-size="12" fill="#cc3333">Ascendant square Neptune (89.94°)</text>
<text x="14" y="679" font-size="12" fill="#cc3333">Moon square Uranus (89.23°)</text>
<text x="14" y="694" font-size="12" fill="#cc3333">Moon square Neptune (91.96°)</text>
<text x="14" y="709" font-size="12" fill="#2e7d32">Mercury trine Uranus (118.42°)</text>
<text x="14" y="724" font-size="12" fill="#2e7d32">Jupiter trine Rahu (121.58°)</text>
<text x="14" y="739" font-size="12" fill="#2e7d32">Jupiter trine Uranus (121.77°)</text>
<text x="14" y="754" font-size="12" fill="#772222">Rahu opposition Ketu (180.00°)</text>
<text x="14" y="769" font-size="12" fill="#2e7d32">Ketu trine Neptune (117.83°)</text>
<text x="14" y="784" font-size="12" fill="#772222">Uranus opposition Neptune (178.81°)</text>
</svg>